<?xml version="1.0" standalone="no"?>
<!DOCTYPE svg PUBLIC "-//W3C//DTD SVG 20010904//EN"
 "http://www.w3.org/TR/2001/REC-SVG-20010904/DTD/svg10.dtd">
<svg version="1.0" xmlns="http://www.w3.org/2000/svg"
 width="234" height="64" viewBox="0 0 315.000000 84.000000"
 preserveAspectRatio="xMidYMid meet">

<g transform="translate(0.000000,84.000000) scale(0.100000,-0.100000)"
fill="#000000" stroke="none">
<path d="M966 593 c-3 -4 -6 -33 -6 -65 0 -32 -2 -58 -5 -58 -2 0 -15 5 -29
11 -15 7 -43 9 -69 5 -39 -6 -48 -12 -61 -40 -9 -19 -16 -59 -16 -90 0 -75 23
-92 115 -82 60 6 65 5 65 -13 0 -22 20 -32 50 -24 21 6 21 9 15 102 -4 53 -11
114 -16 136 -5 22 -9 56 -9 76 0 34 -19 57 -34 42z m-28 -179 c16 -5 22 -14
22 -35 0 -29 -6 -33 -64 -41 -27 -4 -40 21 -27 55 11 27 26 32 69 21z"/>
<path d="M301 553 c-33 -31 -49 -81 -52 -165 -2 -52 0 -60 35 -102 37 -45 39
-46 95 -46 75 0 111 25 111 76 0 39 -11 42 -47 14 -29 -23 -56 -25 -102 -9
-41 15 -48 45 -26 125 15 55 20 64 40 64 26 0 35 -17 35 -65 0 -43 12 -50 52
-29 39 20 48 31 48 62 0 44 -36 79 -91 91 -66 15 -63 15 -98 -16z"/>
<path d="M1391 553 c-33 -31 -49 -81 -52 -165 -2 -52 0 -60 35 -102 37 -45 39
-46 95 -46 75 0 111 25 111 76 0 39 -11 42 -47 14 -29 -23 -56 -25 -102 -9
-41 15 -48 45 -26 125 15 55 20 64 40 64 26 0 35 -17 35 -65 0 -43 12 -50 52
-29 39 20 48 31 48 62 0 44 -36 79 -91 91 -66 15 -63 15 -98 -16z"/>
<path d="M2162 557 c-8 -9 -9 -51 -3 -138 6 -103 5 -126 -7 -136 -23 -19 -4
-33 48 -33 39 0 52 4 60 20 14 25 5 40 -22 40 -21 0 -21 3 -15 118 7 123 2
142 -34 142 -9 0 -21 -6 -27 -13z"/>
<path d="M2314 559 c-3 -6 -3 -69 1 -139 4 -88 3 -130 -4 -134 -6 -4 -11 -14
-11 -22 0 -12 12 -14 58 -12 54 3 57 4 60 31 3 22 -1 27 -17 27 -20 0 -21 5
-21 124 0 104 -3 125 -16 130 -24 9 -42 7 -50 -5z"/>
<path d="M2848 528 c-12 -24 -36 -72 -53 -109 -16 -36 -38 -77 -48 -92 -9 -14
-17 -33 -17 -40 0 -21 26 -39 52 -35 18 2 26 16 45 78 13 41 37 108 54 148 16
40 27 77 24 82 -13 21 -36 8 -57 -32z"/>
<path d="M1647 553 c-4 -3 -7 -38 -7 -78 0 -43 -5 -76 -12 -84 -10 -11 -10
-14 0 -18 8 -3 12 -27 12 -69 0 -55 3 -64 18 -64 41 0 51 21 41 85 -8 55 -7
62 12 78 40 33 49 23 49 -53 0 -78 10 -91 59 -74 25 9 26 13 24 74 -3 81 -29
114 -83 107 -19 -2 -43 -7 -52 -11 -14 -6 -18 -1 -23 31 -14 85 -19 96 -38 76z"/>
<path d="M86 468 c-31 -35 -56 -70 -56 -79 0 -19 92 -99 114 -99 8 0 24 13 36
29 22 32 23 30 -32 72 -16 11 -28 24 -28 29 0 5 14 25 31 45 31 35 33 65 5 65
-8 0 -39 -28 -70 -62z"/>
<path d="M2977 502 c-30 -31 -28 -57 3 -67 9 -3 25 -14 35 -25 17 -19 16 -21
-14 -56 -31 -35 -37 -64 -16 -71 6 -2 28 15 50 38 22 22 50 51 63 64 12 12 22
29 22 38 0 13 -98 107 -112 107 -2 0 -16 -13 -31 -28z"/>
<path d="M2550 496 c-42 -19 -90 -51 -90 -59 0 -17 34 -19 66 -3 58 27 94 18
94 -25 0 -5 -18 -9 -40 -9 -23 0 -59 -9 -80 -20 -38 -19 -40 -23 -40 -66 0
-65 13 -84 58 -84 20 0 52 9 70 20 40 25 42 25 42 1 0 -26 17 -36 35 -21 11 9
15 36 15 102 0 108 -16 155 -57 163 -15 4 -33 8 -38 10 -6 1 -22 -2 -35 -9z
m80 -150 c0 -16 -13 -21 -72 -32 -34 -5 -38 -4 -38 14 0 22 17 28 78 31 22 1
32 -4 32 -13z"/>
<path d="M1167 485 c-67 -17 -87 -38 -87 -94 0 -61 17 -119 38 -130 9 -4 45
-11 79 -14 68 -5 93 8 93 51 0 19 -6 21 -72 24 -58 2 -73 6 -76 20 -2 12 7 18
40 23 91 15 121 52 80 101 -24 30 -40 33 -95 19z m33 -66 c0 -12 -7 -19 -19
-19 -11 0 -27 -3 -36 -6 -13 -5 -16 -2 -13 17 2 15 12 25 28 30 31 7 40 3 40
-22z"/>
<path d="M1943 475 c-44 -19 -57 -47 -49 -111 9 -77 23 -103 60 -108 116 -18
124 -18 136 4 6 12 10 30 8 42 -3 19 -10 21 -73 22 -55 1 -70 4 -73 17 -2 12
11 19 56 28 32 6 64 17 70 23 17 17 15 49 -4 76 -18 26 -80 30 -131 7z m67
-45 c0 -5 0 -13 1 -17 0 -5 -14 -11 -31 -14 -35 -7 -55 15 -29 32 19 12 59 11
59 -1z"/>
<path d="M551 433 c-31 -112 6 -173 104 -173 39 0 51 12 70 76 13 46 13 50 -8
89 -22 40 -22 40 -89 43 l-67 3 -10 -38z m129 -48 c0 -50 -20 -64 -64 -43 -23
10 -27 17 -24 47 3 31 7 37 33 42 46 8 55 1 55 -46z"/>
</g>
</svg>
